<svg width="200" height="200" viewBox="0 0 200 200" xmlns="http://www.w3.org/2000/svg">
  <!-- Background Circle (matches the #6b21a8 color) -->
  <circle cx="100" cy="100" r="90" fill="#6b21a8" />

  <!-- User Icon (centered) -->
  <svg x="20" y="20" width="160" height="160" viewBox="0 0 24 24" fill="white">
    <path d="M12 12c2.21 0 4-1.79 4-4s-1.79-4-4-4-4 1.79-4 4 1.79 4 4 4zm0 2c-2.67 0-8 1.34-8 4v2h16v-2c0-2.66-5.33-4-8-4z" />
  </svg>

  <!-- Lock Icon (positioned relative to the overall SVG, scaled down) -->
  <svg x="125" y="125" width="60" height="60" viewBox="0 0 24 24" fill="#34d399"> <!-- Green color for the lock -->
    <circle cx="12" cy="12" r="12" fill="#10b981" /> <!-- Background circle for the lock, slightly darker green -->
    <path d="M18 8h-1V6c0-2.76-2.24-5-5-5S7 3.24 7 6v2H6c-1.1 0-2 .9-2 2v10c0 1.1.9 2 2 2h12c1.1 0 2-.9 2-2V10c0-1.1-.9-2-2-2zm-6 9c-1.1 0-2-.9-2-2s.9-2 2-2 2 .9 2 2-.9 2-2 2zm3.1-9H8.9V6c0-1.71 1.39-3.1 3.1-3.1s3.1 1.39 3.1 3.1v2z" />
  </svg>
</svg>
