<svg width="17" height="12" viewBox="0 0 17 12" fill="none" xmlns="http://www.w3.org/2000/svg">
<path d="M10.75 6.5C10.75 7.881 9.631 9 8.25 9C6.869 9 5.75 7.881 5.75 6.5C5.75 5.119 6.869 4 8.25 4C9.631 4 10.75 5.119 10.75 6.5Z" fill="black"/>
<path fill-rule="evenodd" clip-rule="evenodd" d="M2.25 2C1.145 2 0.25 2.896 0.25 4V10C0.25 11.105 1.145 12 2.25 12H14.25C15.355 12 16.25 11.105 16.25 10V4C16.25 2.896 15.355 2 14.25 2H13.078C12.548 2 12.039 1.789 11.664 1.414L10.836 0.585999C10.461 0.210999 9.952 0 9.422 0H7.078C6.548 0 6.039 0.210999 5.664 0.585999L4.836 1.414C4.461 1.789 3.952 2 3.422 2H2.25ZM2.75 4C3.026 4 3.25 3.776 3.25 3.5C3.25 3.224 3.026 3 2.75 3C2.474 3 2.25 3.224 2.25 3.5C2.25 3.776 2.474 4 2.75 4ZM11.75 6.5C11.75 8.433 10.183 10 8.25 10C6.317 10 4.75 8.433 4.75 6.5C4.75 4.567 6.317 3 8.25 3C10.183 3 11.75 4.567 11.75 6.5Z" fill="currentColor"/>
</svg>
