<svg width="16" height="16" viewBox="0 0 16 16" fill="none" xmlns="http://www.w3.org/2000/svg">
<path fill-rule="evenodd" clip-rule="evenodd" d="M8 15C11.866 15 15 11.866 15 8C15 4.134 11.866 1 8 1C4.134 1 1 4.134 1 8C1 11.866 4.134 15 8 15ZM8 16C12.418 16 16 12.418 16 8C16 3.582 12.418 0 8 0C3.582 0 0 3.582 0 8C0 12.418 3.582 16 8 16Z" fill="currentColor"/>
 <path fill-rule="evenodd" clip-rule="evenodd" d="M4.64599 4.64599C4.84199 4.45099 5.158 4.45099 5.354 4.64599L7.99999 7.29299L10.64599 4.64599C10.84199 4.45099 11.158 4.45099 11.354 4.64599C11.549 4.84199 11.549 5.158 11.354 5.354L8.70699 7.99999L11.354 10.64599C11.549 10.84199 11.549 11.158 11.354 11.354C11.158 11.549 10.84199 11.549 10.64599 11.354L7.99999 8.70699L5.354 11.354C5.158 11.549 4.84199 11.549 4.64599 11.354C4.45099 11.158 4.45099 10.84199 4.64599 10.64599L7.29299 7.99999L4.64599 5.354C4.45099 5.158 4.45099 4.84199 4.64599 4.64599Z" 
  fill="currentColor"/>
</svg>
