<svg width="15" height="15" viewBox="0 0 15 15" fill="none" xmlns="http://www.w3.org/2000/svg">
<path d="M14.752 1.93899C14.947 2.13499 14.947 2.451 14.752 2.647L13.709 3.68899L11.709 1.68899L12.752 0.647C12.947 0.451 13.263 0.451 13.459 0.647L14.752 1.93899Z" fill="currentColor"/>
<path d="M13.002 4.39697L11.002 2.39697L4.18903 9.20996C4.13403 9.26396 4.09202 9.33097 4.06802 9.40497L3.26302 11.819C3.19802 12.014 3.38402 12.2 3.57902 12.135L5.99302 11.33C6.06702 11.306 6.13403 11.264 6.18903 11.21L13.002 4.39697Z" fill="currentColor"/>
<path fill-rule="evenodd" clip-rule="evenodd" d="M0.25 13.5C0.25 14.329 0.922 15 1.75 15H12.75C13.578 15 14.25 14.329 14.25 13.5V7.5C14.25 7.224 14.026 7 13.75 7C13.474 7 13.25 7.224 13.25 7.5V13.5C13.25 13.776 13.026 14 12.75 14H1.75C1.474 14 1.25 13.776 1.25 13.5V2.5C1.25 2.224 1.474 2 1.75 2H8.25C8.526 2 8.75 1.776 8.75 1.5C8.75 1.224 8.526 1 8.25 1H1.75C0.922 1 0.25 1.672 0.25 2.5V13.5Z" fill="currentColor"/>
</svg>
