<svg width="24" height="24" viewBox="0 0 17 16" fill="none" xmlns="http://www.w3.org/2000/svg">
<path fill-rule="evenodd" clip-rule="evenodd" d="M16.25 8C16.25 12.418 12.668 16 8.25 16C3.832 16 0.25 12.418 0.25 8C0.25 3.582 3.832 0 8.25 0C12.668 0 16.25 3.582 16.25 8ZM5.604 4.646C5.408 4.451 5.092 4.451 4.896 4.646C4.701 4.842 4.701 5.158 4.896 5.354L7.543 8L4.896 10.646C4.701 10.842 4.701 11.158 4.896 11.354C5.092 11.549 5.408 11.549 5.604 11.354L8.25 8.707L10.896 11.354C11.092 11.549 11.408 11.549 11.604 11.354C11.799 11.158 11.799 10.842 11.604 10.646L8.957 8L11.604 5.354C11.799 5.158 11.799 4.842 11.604 4.646C11.408 4.451 11.092 4.451 10.896 4.646L8.25 7.293L5.604 4.646Z" fill="currentColor"/>
</svg>
