<svg width="17" height="14" viewBox="0 0 17 14" fill="none" xmlns="http://www.w3.org/2000/svg">
<path d="M11.04 11.9119L9.42599 10.2979C9.059 10.4289 8.663 10.5009 8.25 10.5009C6.317 10.5009 4.75 8.93392 4.75 7.00092C4.75 6.58792 4.821 6.19191 4.953 5.82391L2.89101 3.76294C1.18901 5.27994 0.25 7.00092 0.25 7.00092C0.25 7.00092 3.25 12.5009 8.25 12.5009C9.265 12.5009 10.198 12.2739 11.04 11.9119Z" fill="currentColor"/>
<path d="M5.45996 2.08899C6.30196 1.72699 7.23495 1.50098 8.24995 1.50098C13.25 1.50098 16.25 7.00098 16.25 7.00098C16.25 7.00098 15.3109 8.72098 13.6089 10.238L11.547 8.177C11.679 7.809 11.75 7.41298 11.75 7.00098C11.75 5.06798 10.183 3.50098 8.24995 3.50098C7.83695 3.50098 7.44096 3.572 7.07396 3.703L5.45996 2.08899Z" fill="currentColor"/>
<path d="M5.77499 6.64697C5.75799 6.76197 5.75 6.87998 5.75 7.00098C5.75 8.38098 6.869 9.50098 8.25 9.50098C8.37 9.50098 8.488 9.49201 8.604 9.47601L5.77499 6.64697Z" fill="currentColor"/>
<path d="M10.725 7.354L7.896 4.52502C8.012 4.50902 8.13 4.50098 8.25 4.50098C9.631 4.50098 10.75 5.61998 10.75 7.00098C10.75 7.12098 10.742 7.239 10.725 7.354Z" fill="currentColor"/>
<path fill-rule="evenodd" clip-rule="evenodd" d="M13.896 13.354L1.896 1.354L2.604 0.646973L14.604 12.647L13.896 13.354Z" fill="currentColor"/>
</svg>
