<svg width="17" height="12" viewBox="0 0 17 12" fill="none" xmlns="http://www.w3.org/2000/svg">
<path d="M10.75 6C10.75 7.381 9.631 8.5 8.25 8.5C6.869 8.5 5.75 7.381 5.75 6C5.75 4.62 6.869 3.5 8.25 3.5C9.631 3.5 10.75 4.62 10.75 6Z" fill="black"/>
<path fill-rule="evenodd" clip-rule="evenodd" d="M0.25 6C0.25 6 3.25 0.5 8.25 0.5C13.25 0.5 16.25 6 16.25 6C16.25 6 13.25 11.5 8.25 11.5C3.25 11.5 0.25 6 0.25 6ZM8.25 9.5C10.183 9.5 11.75 7.933 11.75 6C11.75 4.067 10.183 2.5 8.25 2.5C6.317 2.5 4.75 4.067 4.75 6C4.75 7.933 6.317 9.5 8.25 9.5Z" fill="currentColor"/>
</svg>
