<svg width="16" height="16" viewBox="0 0 16 16" fill="none" xmlns="http://www.w3.org/2000/svg">
<path fill-rule="evenodd" clip-rule="evenodd" d="M6.5 12C9.538 12 12 9.54 12 6.5C12 3.46 9.538 1 6.5 1C3.462 1 1 3.46 1 6.5C1 9.54 3.462 12 6.5 12ZM13 6.5C13 10.09 10.09 13 6.5 13C2.91 13 0 10.09 0 6.5C0 2.91 2.91 0 6.5 0C10.09 0 13 2.91 13 6.5Z" fill="currentColor"/>
<path d="M10.344 11.74C10.373 11.78 10.406 11.82 10.442 11.86L14.293 15.71C14.683 16.1 15.317 16.1 15.707 15.71C16.098 15.32 16.098 14.68 15.707 14.29L11.857 10.4399C11.82 10.4099 11.782 10.37 11.742 10.34C11.35 10.88 10.878 11.35 10.344 11.74Z" fill="currentColor"/>
</svg>
