<svg width="14" height="14" viewBox="0 0 14 14" fill="none" xmlns="http://www.w3.org/2000/svg">
<path d="M13.5369 5.69431H12.9999V5.66665H6.99992V8.33331H10.7676C10.2179 9.88565 8.74092 11 6.99992 11C4.79092 11 2.99992 9.20898 2.99992 6.99998C2.99992 4.79098 4.79092 2.99998 6.99992 2.99998C8.01958 2.99998 8.94725 3.38465 9.65358 4.01298L11.5393 2.12731C10.3486 1.01765 8.75592 0.333313 6.99992 0.333313C3.31825 0.333313 0.333252 3.31831 0.333252 6.99998C0.333252 10.6816 3.31825 13.6666 6.99992 13.6666C10.6816 13.6666 13.6666 10.6816 13.6666 6.99998C13.6666 6.55298 13.6206 6.11665 13.5369 5.69431Z" fill="#FFC107"/>
<path d="M1.10205 3.89698L3.29238 5.50331C3.88505 4.03598 5.32038 2.99998 7.00005 2.99998C8.01972 2.99998 8.94738 3.38465 9.65372 4.01298L11.5394 2.12731C10.3487 1.01765 8.75605 0.333313 7.00005 0.333313C4.43938 0.333313 2.21872 1.77898 1.10205 3.89698Z" fill="#FF3D00"/>
<path d="M6.99994 13.6667C8.72194 13.6667 10.2866 13.0077 11.4696 11.936L9.40627 10.19C8.73694 10.697 7.90494 11 6.99994 11C5.26594 11 3.79361 9.89432 3.23894 8.35132L1.06494 10.0263C2.16827 12.1853 4.40894 13.6667 6.99994 13.6667Z" fill="#4CAF50"/>
<path d="M13.537 5.69435H13V5.66669H7V8.33335H10.7677C10.5037 9.07902 10.024 9.72202 9.40533 10.1904L9.40633 10.1897L11.4697 11.9357C11.3237 12.0684 13.6667 10.3334 13.6667 7.00002C13.6667 6.55302 13.6207 6.11669 13.537 5.69435Z" fill="#1976D2"/>
</svg>
