<svg width="14" height="14" viewBox="0 0 14 14" fill="none" xmlns="http://www.w3.org/2000/svg">
<path d="M5.75 9.995C5.75 10.858 5.75 13.5 5.75 13.5C5.75 13.777 5.5261 14 5.25 14H1.25C0.9739 14 0.75 13.777 0.75 13.5V6.50001C0.75 6.36801 0.8027 6.24098 0.8964 6.14698L6.8964 0.146982C7.0917 -0.0480176 7.4083 -0.0480176 7.6036 0.146982L13.6036 6.14698C13.6973 6.24098 13.75 6.36801 13.75 6.50001V13.5C13.75 13.777 13.5261 14 13.25 14H9.25C8.9739 14 8.75 13.777 8.75 13.5C8.75 13.5 8.75 11.161 8.75 10C8.75 9.75001 8.5 9.50001 8.25 9.50001C7.3799 9.50001 6.7209 9.50001 6.25 9.50001C6 9.50001 5.75 9.75 5.75 9.995Z" fill="currentColor"/>
</svg>
