<svg width="24" height="24" viewBox="0 0 17 16" fill="none" xmlns="http://www.w3.org/2000/svg">
<path fill-rule="evenodd" clip-rule="evenodd" d="M8.25 16C12.668 16 16.25 12.418 16.25 8C16.25 3.582 12.668 0 8.25 0C3.832 0 0.25 3.582 0.25 8C0.25 12.418 3.832 16 8.25 16ZM9.181 6.588L6.89 6.875L6.808 7.256L7.259 7.338C7.552 7.408 7.61001 7.51401 7.54601 7.80701L6.808 11.275C6.614 12.172 6.913 12.594 7.616 12.594C8.161 12.594 8.79399 12.342 9.08099 11.996L9.16901 11.58C8.97001 11.756 8.677 11.826 8.483 11.826C8.208 11.826 8.108 11.633 8.179 11.293L9.181 6.588ZM8.25 5.5C8.802 5.5 9.25 5.052 9.25 4.5C9.25 3.948 8.802 3.5 8.25 3.5C7.698 3.5 7.25 3.948 7.25 4.5C7.25 5.052 7.698 5.5 8.25 5.5Z" fill="currentColor"/>
</svg>
