<svg width="16" height="16" viewBox="0 0 16 16" fill="none" xmlns="http://www.w3.org/2000/svg">
<path fill-rule="evenodd" clip-rule="evenodd" d="M14 1H2C1.448 1 1 1.4477 1 2V10C1 10.5523 1.448 11 2 11H4.5C5.13 11 5.72201 11.2964 6.10001 11.8L8 14.333L9.89999 11.8C10.278 11.2964 10.87 11 11.5 11H14C14.552 11 15 10.5523 15 10V2C15 1.4477 14.552 1 14 1ZM2 0C0.895 0 0 0.8954 0 2V10C0 11.1046 0.895 12 2 12H4.5C4.815 12 5.11099 12.148 5.29999 12.4L7.20001 14.933C7.60001 15.467 8.39999 15.467 8.79999 14.933L10.7 12.4C10.889 12.148 11.185 12 11.5 12H14C15.105 12 16 11.1046 16 10V2C16 0.8954 15.105 0 14 0H2Z" fill="currentColor"/>
<path fill-rule="evenodd" clip-rule="evenodd" d="M3 3.5C3 3.2239 3.224 3 3.5 3H12.5C12.776 3 13 3.2239 13 3.5C13 3.7761 12.776 4 12.5 4H3.5C3.224 4 3 3.7761 3 3.5ZM3 6C3 5.7239 3.224 5.5 3.5 5.5H12.5C12.776 5.5 13 5.7239 13 6C13 6.2761 12.776 6.5 12.5 6.5H3.5C3.224 6.5 3 6.2761 3 6ZM3 8.5C3 8.2239 3.224 8 3.5 8H8.5C8.776 8 9 8.2239 9 8.5C9 8.7761 8.776 9 8.5 9H3.5C3.224 9 3 8.7761 3 8.5Z" fill="currentColor"/>
</svg>
