<svg width="16" height="16" viewBox="0 0 16 16" fill="none" xmlns="http://www.w3.org/2000/svg">
<path fill-rule="evenodd" clip-rule="evenodd" d="M13.7483 0.794979L13.8965 0.646969C14.3679 0.174969 15.1322 0.174969 15.6036 0.646969C16.075 1.11797 16.075 1.88197 15.6036 2.35397L15.4554 2.50198C15.9815 3.09098 15.9619 3.99497 15.3965 4.56097L5.10363 14.854C5.03953 14.918 4.95923 14.963 4.87133 14.985L0.87133 15.985C0.70093 16.028 0.52063 15.978 0.39653 15.854C0.27233 15.729 0.22233 15.549 0.26493 15.379L1.26493 11.379C1.28693 11.291 1.33243 11.211 1.39653 11.147L11.0377 1.50497C10.8426 1.36797 10.571 1.38597 10.3965 1.56097L7.10363 4.85397C6.90833 5.04897 6.59173 5.04897 6.39653 4.85397C6.20123 4.65797 6.20123 4.34197 6.39653 4.14697L9.68943 0.853969C10.2553 0.287969 11.1611 0.268956 11.75 0.795956C12.3178 0.286956 13.1799 0.286979 13.7483 0.794979Z" fill="currentColor"/>
</svg>
