<svg width="13" height="14" viewBox="0 0 13 14" fill="none" xmlns="http://www.w3.org/2000/svg">
<path fill-rule="evenodd" clip-rule="evenodd" d="M3.828 3.43701C2.289 4.29101 1.25 5.93101 1.25 7.81201C1.25 10.574 3.489 12.812 6.25 12.812C9.011 12.812 11.25 10.574 11.25 7.81201C11.25 5.96201 10.245 4.34602 8.75 3.48102L9.25 2.61499C11.042 3.65199 12.25 5.59101 12.25 7.81201C12.25 11.126 9.564 13.812 6.25 13.812C2.936 13.812 0.25 11.126 0.25 7.81201C0.25 5.55301 1.499 3.58599 3.343 2.56299L3.828 3.43701Z" fill="currentColor"/>
<path fill-rule="evenodd" clip-rule="evenodd" d="M5.75 7V0H6.75V7H5.75Z" fill="currentColor"/>
</svg>
