<svg width="17" height="16" viewBox="0 0 17 16" fill="none" xmlns="http://www.w3.org/2000/svg">
<path d="M13.718 12.371C13.007 11.2252 11.445 10 8.24997 10C5.05497 10 3.49298 11.2252 2.78198 12.371C4.06498 13.973 6.03697 15 8.24997 15C10.462 15 12.435 13.973 13.718 12.371Z" fill="currentColor"/>
<path fill-rule="evenodd" clip-rule="evenodd" d="M8.25 9C9.907 9 11.25 7.6569 11.25 6C11.25 4.3431 9.907 3 8.25 3C6.593 3 5.25 4.3431 5.25 6C5.25 7.6569 6.593 9 8.25 9Z" fill="currentColor"/>
<path fill-rule="evenodd" clip-rule="evenodd" d="M8.25 1C4.384 1 1.25 4.134 1.25 8C1.25 11.866 4.384 15 8.25 15C12.116 15 15.25 11.866 15.25 8C15.25 4.134 12.116 1 8.25 1ZM0.25 8C0.25 3.5817 3.832 0 8.25 0C12.668 0 16.25 3.5817 16.25 8C16.25 12.418 12.668 16 8.25 16C3.832 16 0.25 12.418 0.25 8Z" fill="currentColor"/>
</svg>
