<svg width="16" height="16" viewBox="0 0 16 16" fill="none" xmlns="http://www.w3.org/2000/svg">
<path fill-rule="evenodd" clip-rule="evenodd" d="M11.46 0.145996C11.366 0.0529961 11.239 0 11.107 0H4.89301C4.76101 0 4.63399 0.0529961 4.53999 0.145996L0.145996 4.54001C0.0529961 4.63401 0 4.76101 0 4.89301V11.107C0 11.239 0.0529961 11.366 0.145996 11.46L4.53999 15.854C4.63399 15.947 4.76101 16 4.89301 16H11.107C11.239 16 11.366 15.947 11.46 15.854L15.854 11.46C15.947 11.366 16 11.239 16 11.107V4.89301C16 4.76101 15.947 4.63401 15.854 4.54001L11.46 0.145996ZM5.496 6.03299C5.36 6.03299 5.248 5.92201 5.255 5.78601C5.35 4.09101 6.738 3.5 8.005 3.5C9.40201 3.5 10.678 4.23 10.678 5.741C10.678 6.82 10.043 7.334 9.43401 7.797C8.69701 8.356 8.424 8.56499 8.424 9.28299V9.388C8.424 9.526 8.312 9.638 8.174 9.638H7.36301C7.22701 9.638 7.11501 9.528 7.11301 9.392L7.11 9.17499C7.072 8.24799 7.605 7.67699 8.278 7.18799C8.869 6.74399 9.243 6.45199 9.243 5.81699C9.243 4.99199 8.615 4.64899 7.929 4.64899C7.127 4.64899 6.67601 5.12699 6.58701 5.78299C6.56901 5.91999 6.459 6.03299 6.321 6.03299H5.496ZM7.821 12.476C7.237 12.476 6.812 12.082 6.812 11.549C6.812 10.997 7.237 10.609 7.821 10.609C8.431 10.609 8.85001 10.997 8.85001 11.549C8.85001 12.082 8.431 12.476 7.821 12.476Z" fill="currentColor"/>
</svg>
