<svg width="17" height="16" viewBox="0 0 17 16" fill="none" xmlns="http://www.w3.org/2000/svg">
<path fill-rule="evenodd" clip-rule="evenodd" d="M9.65501 1.05099C9.24201 -0.350006 7.25801 -0.350006 6.84501 1.05099L6.74501 1.39001C6.48101 2.28501 5.45903 2.70799 4.64003 2.26199L4.32902 2.09299C3.04702 1.39399 1.644 2.79701 2.343 4.07901L2.51201 4.39001C2.95801 5.20901 2.53503 6.23199 1.64003 6.49499L1.3 6.595C-0.1 7.008 -0.1 8.992 1.3 9.405L1.64003 9.505C2.53503 9.769 2.95801 10.791 2.51201 11.61L2.343 11.921C1.644 13.203 3.04702 14.606 4.32902 13.907L4.64003 13.738C5.45903 13.292 6.48101 13.715 6.74501 14.61L6.84501 14.95C7.25801 16.35 9.24201 16.35 9.65501 14.95L9.75502 14.61C10.019 13.715 11.041 13.292 11.86 13.738L12.171 13.907C13.453 14.606 14.856 13.203 14.157 11.921L13.988 11.61C13.542 10.791 13.965 9.769 14.86 9.505L15.2 9.405C16.6 8.992 16.6 7.008 15.2 6.595L14.86 6.49499C13.965 6.23199 13.542 5.20901 13.988 4.39001L14.157 4.07901C14.856 2.79701 13.453 1.39399 12.171 2.09299L11.86 2.26199C11.041 2.70799 10.019 2.28501 9.75502 1.39001L9.65501 1.05099ZM8.25001 10.929C9.86801 10.929 11.179 9.618 11.179 8C11.179 6.383 9.86801 5.07101 8.25001 5.07101C6.63201 5.07101 5.32103 6.383 5.32103 8C5.32103 9.618 6.63201 10.929 8.25001 10.929Z" fill="currentColor"/>
</svg>
