<svg width="24" height="24" viewBox="0 0 17 16" fill="none" xmlns="http://www.w3.org/2000/svg">
<path fill-rule="evenodd" clip-rule="evenodd" d="M16.25 8C16.25 12.418 12.668 16 8.25 16C3.832 16 0.25 12.418 0.25 8C0.25 3.582 3.832 0 8.25 0C12.668 0 16.25 3.582 16.25 8ZM12.28 4.97C11.987 4.677 11.513 4.677 11.22 4.97C11.213 4.977 11.206 4.984 11.2 4.992L7.72699 9.41701L5.634 7.323C5.341 7.03 4.866 7.03 4.573 7.323C4.28 7.616 4.28 8.091 4.573 8.384L7.22 11.03C7.513 11.323 7.987 11.323 8.28 11.03C8.287 11.024 8.29301 11.017 8.29901 11.01L12.291 6.019C12.573 5.726 12.57 5.259 12.28 4.97Z" fill="currentColor"/>
</svg>
