<svg width="14" height="16" viewBox="0 0 14 16" fill="none" xmlns="http://www.w3.org/2000/svg">
<path d="M4.30804 5.86694C4.60504 5.86694 4.84604 6.10496 4.84604 6.39996V12.7999C4.84604 13.0949 4.60504 13.3329 4.30804 13.3329C4.01004 13.3329 3.76904 13.0949 3.76904 12.7999V6.39996C3.76904 6.10496 4.01004 5.86694 4.30804 5.86694Z" fill="currentColor"/>
<path d="M6.99991 5.86694C7.29691 5.86694 7.5379 6.10496 7.5379 6.39996V12.7999C7.5379 13.0949 7.29691 13.3329 6.99991 13.3329C6.70291 13.3329 6.46191 13.0949 6.46191 12.7999V6.39996C6.46191 6.10496 6.70291 5.86694 6.99991 5.86694Z" fill="currentColor"/>
<path d="M10.2308 6.39996C10.2308 6.10496 9.9898 5.86694 9.6918 5.86694C9.3948 5.86694 9.15381 6.10496 9.15381 6.39996V12.7999C9.15381 13.0949 9.3948 13.3329 9.6918 13.3329C9.9898 13.3329 10.2308 13.0949 10.2308 12.7999V6.39996Z" fill="currentColor"/>
<path fill-rule="evenodd" clip-rule="evenodd" d="M14 3.20001C14 3.78901 13.518 4.26703 12.923 4.26703H12.385V13.867C12.385 15.045 11.42 16 10.231 16H3.76901C2.58001 16 1.61499 15.045 1.61499 13.867V4.26703H1.077C0.481996 4.26703 0 3.78901 0 3.20001V2.133C0 1.544 0.481996 1.06702 1.077 1.06702H4.84601C4.84601 0.478017 5.328 0 5.923 0H8.077C8.672 0 9.15399 0.478017 9.15399 1.06702H12.923C13.518 1.06702 14 1.544 14 2.133V3.20001ZM2.819 4.26703L2.69199 4.33002V13.867C2.69199 14.456 3.17401 14.933 3.76901 14.933H10.231C10.826 14.933 11.308 14.456 11.308 13.867V4.33002L11.181 4.26703H2.819ZM1.077 3.20001V2.133H12.923V3.20001H1.077Z" fill="currentColor"/>
</svg>
