<svg width="24" height="24" viewBox="0 0 17 16" fill="none" xmlns="http://www.w3.org/2000/svg">
<path fill-rule="evenodd" clip-rule="evenodd" d="M16.25 8C16.25 12.418 12.668 16 8.25 16C3.832 16 0.25 12.418 0.25 8C0.25 3.582 3.832 0 8.25 0C12.668 0 16.25 3.582 16.25 8ZM8.25 4C7.715 4 7.29601 4.462 7.35001 4.995L7.70001 8.502C7.72801 8.785 7.966 9 8.25 9C8.534 9 8.77199 8.785 8.79999 8.502L9.14999 4.995C9.20399 4.462 8.785 4 8.25 4ZM8.25201 10C7.69901 10 7.25201 10.448 7.25201 11C7.25201 11.552 7.69901 12 8.25201 12C8.80401 12 9.25201 11.552 9.25201 11C9.25201 10.448 8.80401 10 8.25201 10Z" fill="currentColor"/>
</svg>
